<?xml version="1.0" standalone="no"?>
<!DOCTYPE svg PUBLIC "-//W3C//DTD SVG 20010904//EN"
 "http://www.w3.org/TR/2001/REC-SVG-20010904/DTD/svg10.dtd">
<svg version="1.0" xmlns="http://www.w3.org/2000/svg"
 width="463.000000pt" height="280.000000pt" viewBox="0 0 463.000000 280.000000"
 preserveAspectRatio="xMidYMid meet">
<metadata>
Created by potrace 1.15, written by Peter Selinger 2001-2017
</metadata>
<g transform="translate(0.000000,280.000000) scale(0.100000,-0.100000)"
fill="#000000" stroke="none">
<path d="M2229 2137 c-36 -23 -103 -66 -150 -96 -115 -75 -155 -100 -379 -241
-253 -158 -260 -164 -260 -200 0 -19 7 -33 20 -40 19 -10 20 -21 20 -345 l0
-335 -720 0 c-473 0 -720 -3 -720 -10 0 -7 250 -10 730 -10 l730 0 0 344 c0
189 -3 351 -6 360 -3 9 -12 16 -20 16 -26 0 -14 39 19 63 17 14 209 136 425
272 l392 247 418 -263 c229 -145 420 -268 424 -273 13 -18 9 -46 -6 -46 -8 0
-17 -7 -20 -16 -3 -9 -6 -171 -6 -360 l0 -344 730 0 c480 0 730 3 730 10 0 7
-247 10 -720 10 l-720 0 0 335 c0 324 1 335 20 345 13 7 20 21 20 40 0 36 -8
42 -260 200 -107 68 -211 133 -230 145 -19 13 -73 47 -120 77 -182 117 -250
158 -262 157 -7 0 -43 -19 -79 -42z"/>
<path d="M2016 1755 c-164 -90 -303 -168 -308 -173 -5 -5 109 -76 292 -180
165 -95 302 -172 305 -172 2 0 117 61 254 135 137 74 256 138 265 141 14 6 16
-13 16 -190 l0 -196 50 0 50 0 0 229 0 229 -310 171 c-171 94 -312 171 -313
170 -1 0 -136 -74 -301 -164z m610 -27 l294 -163 0 -212 0 -213 -30 0 -30 0 0
200 c0 123 -4 200 -10 200 -5 0 -127 -64 -271 -142 -144 -78 -267 -141 -274
-141 -22 0 -566 316 -558 324 16 16 558 309 572 309 8 0 146 -73 307 -162z"/>
<path d="M2520 1230 c-107 -60 -199 -110 -204 -110 -5 0 -99 47 -208 105 -109
58 -200 105 -203 105 -3 0 -5 -55 -5 -122 l1 -123 200 -105 c111 -58 206 -105
213 -105 7 0 103 50 214 110 l201 110 1 123 c0 67 -3 122 -7 121 -5 0 -96 -49
-203 -109z m183 -121 c-4 -4 -93 -55 -198 -113 l-189 -105 -136 71 c-74 39
-163 86 -197 105 l-63 35 0 100 0 100 138 -73 c75 -39 164 -86 197 -104 l60
-33 195 108 195 109 3 -96 c1 -53 -1 -100 -5 -104z"/>
</g>
</svg>
